<svg xmlns="http://www.w3.org/2000/svg" width="16" height="16" viewBox="0 0 128 128">
  <defs>
    <linearGradient id="grad1" x1="0%" y1="0%" x2="100%" y2="100%">
      <stop offset="0%" style="stop-color:#3b82f6;stop-opacity:1" />
      <stop offset="100%" style="stop-color:#1d4ed8;stop-opacity:1" />
    </linearGradient>
  </defs>
  <rect width="128" height="128" rx="28" fill="url(#grad1)"/>
  <g fill="none" stroke="white" stroke-width="8" stroke-linecap="round" stroke-linejoin="round">
    <path d="M88 78v12a8 8 0 0 1-8.7 8 64 64 0 0 1-28-10 63 63 0 0 1-19-19 64 64 0 0 1-10-28A8 8 0 0 1 30 32h12a8 8 0 0 1 8 7 51 51 0 0 0 3 11 8 8 0 0 1-2 9L47 63a64 64 0 0 0 19 19l4-4a8 8 0 0 1 9-2 51 51 0 0 0 11 3 8 8 0 0 1 7 8z"/>
  </g>
  <circle cx="90" cy="38" r="16" fill="white"/>
  <text x="90" y="46" text-anchor="middle" fill="#1d4ed8" font-family="Arial" font-weight="bold" font-size="24">+</text>
</svg>
