<svg xmlns="http://www.w3.org/2000/svg" width="16" height="16" viewBox="0 0 128 128">
  <defs>
    <linearGradient id="grad1" x1="0%" y1="0%" x2="100%" y2="100%">
      <stop offset="0%" style="stop-color:#3b82f6;stop-opacity:1" />
      <stop offset="100%" style="stop-color:#1d4ed8;stop-opacity:1" />
    </linearGradient>
  </defs>
  <rect width="128" height="128" rx="28" fill="url(#grad1)"/>
  <g fill="none" stroke="white" stroke-width="6" stroke-linecap="round" stroke-linejoin="round">
    <path d="M88 78.5v12a8 8 0 0 1-8.7 8 63.9 63.9 0 0 1-27.9-9.9 63 63 0 0 1-19.4-19.4 63.9 63.9 0 0 1-9.9-28A8 8 0 0 1 30 32.5h12a8 8 0 0 1 8 6.9 51.4 51.4 0 0 0 2.8 11.2 8 8 0 0 1-1.8 8.4L46.9 63a63.9 63.9 0 0 0 19.4 19.4l4-4a8 8 0 0 1 8.5-1.9 51.4 51.4 0 0 0 11.2 2.9 8 8 0 0 1 6.9 8z"/>
    <circle cx="82" cy="38" r="14" fill="white" stroke="none"/>
    <text x="82" y="44" text-anchor="middle" fill="#1d4ed8" font-family="Arial" font-weight="bold" font-size="18">+</text>
  </g>
</svg>
